<svg width="893" height="456" viewBox="0 0 893 456" fill="none" xmlns="http://www.w3.org/2000/svg">
<path d="M12 107H828.5V233H52V362H858.5" stroke="#C4C4C4" stroke-opacity="0.25" stroke-width="15" stroke-dasharray="15 15"/>
<rect x="469.5" y="16.5" width="274" height="179" fill="white" stroke="#FDDB26" stroke-width="15"/>
<rect x="126.5" y="269.5" width="274" height="179" fill="white" stroke="#FDDB26" stroke-width="15"/>
<rect x="462" y="262" width="289" height="194" fill="#E1E1E1" fill-opacity="0.2"/>
<rect x="125.5" y="16.5" width="274" height="179" fill="white" stroke="#FDDB26" stroke-width="15"/>
<path d="M200.274 117V113.997L204.067 113.528V100.052L200.244 100.008V97.166L209.194 95.6719V113.528L212.988 113.997V117H200.274ZM215.405 117V112.752H220.518V117H215.405ZM231.909 117V113.997L233.403 113.777L239.761 95.6719H245.327L251.699 113.777L253.193 113.997V117H245.225V113.997L246.616 113.733L245.972 111.419H239.116L238.501 113.733L239.893 113.997V117H231.909ZM240.2 107.815H244.873L242.793 101.355L242.559 100.608H242.471L242.222 101.429L240.2 107.815ZM254.131 117V113.997L256.343 113.528V99.1582L254.131 98.6895V95.6719H264.502C266.201 95.6719 267.676 95.9697 268.926 96.5654C270.176 97.1611 271.138 97.9912 271.812 99.0557C272.495 100.11 272.837 101.341 272.837 102.747C272.837 104.153 272.495 105.384 271.812 106.438C271.138 107.493 270.176 108.313 268.926 108.899C267.676 109.485 266.201 109.778 264.502 109.778H261.484V113.528L263.696 113.997V117H254.131ZM261.484 105.838H264.502C265.547 105.838 266.338 105.555 266.875 104.988C267.422 104.412 267.695 103.675 267.695 102.776C267.695 101.849 267.422 101.087 266.875 100.491C266.338 99.8955 265.547 99.5977 264.502 99.5977H261.484V105.838ZM273.789 117V113.997L276.001 113.528V99.1582L273.789 98.6895V95.6719H284.16C285.859 95.6719 287.334 95.9697 288.584 96.5654C289.834 97.1611 290.796 97.9912 291.47 99.0557C292.153 100.11 292.495 101.341 292.495 102.747C292.495 104.153 292.153 105.384 291.47 106.438C290.796 107.493 289.834 108.313 288.584 108.899C287.334 109.485 285.859 109.778 284.16 109.778H281.143V113.528L283.354 113.997V117H273.789ZM281.143 105.838H284.16C285.205 105.838 285.996 105.555 286.533 104.988C287.08 104.412 287.354 103.675 287.354 102.776C287.354 101.849 287.08 101.087 286.533 100.491C285.996 99.8955 285.205 99.5977 284.16 99.5977H281.143V105.838ZM293.447 117V113.997L295.659 113.528V99.1582L293.447 98.6895V95.6719H303.496V98.6895L300.801 99.1582V113.06H305.869L305.986 110.086H309.912V117H293.447ZM312.358 117V113.997L314.57 113.528V109.969L308.389 98.9971L306.162 98.6895V95.6719H315.391V98.6895L314.072 98.9238L317.002 104.769L317.339 105.516H317.471L317.822 104.812L321.25 98.9238L319.023 98.6895V95.6719H328.076V98.6895L325.82 98.9971L319.697 109.559V113.528L321.924 113.997V117H312.358Z" fill="black"/>
<path d="M537.155 93V89.7041L544.025 82.4678C544.943 81.4229 545.588 80.5439 545.959 79.8311C546.33 79.1182 546.516 78.4492 546.516 77.8242C546.516 77.1309 546.33 76.5449 545.959 76.0664C545.588 75.5781 545.031 75.334 544.289 75.334C543.479 75.334 542.878 75.6221 542.487 76.1982C542.097 76.7646 541.901 77.5312 541.901 78.498H536.877L536.848 78.4102C536.818 77.0918 537.102 75.9004 537.697 74.8359C538.303 73.7715 539.172 72.9268 540.305 72.3018C541.438 71.6768 542.771 71.3643 544.304 71.3643C546.608 71.3643 548.41 71.9551 549.709 73.1367C551.018 74.3086 551.672 75.8564 551.672 77.7803C551.672 78.6592 551.521 79.4697 551.218 80.2119C550.925 80.9443 550.437 81.7305 549.753 82.5703C549.079 83.4102 548.176 84.4258 547.043 85.6172L543.82 89.0303L543.85 89.1035H548.083L548.303 87.3311H552.155V93H537.155ZM554.646 93V88.752H559.758V93H554.646ZM579.138 93.3076C577.663 93.3076 576.306 93.0391 575.065 92.502C573.835 91.9551 572.766 91.1934 571.857 90.2168C570.949 89.2402 570.246 88.0977 569.748 86.7891C569.26 85.4707 569.016 84.04 569.016 82.4971V82.1602C569.016 80.627 569.26 79.2061 569.748 77.8975C570.246 76.5889 570.944 75.4463 571.843 74.4697C572.751 73.4932 573.82 72.7314 575.051 72.1846C576.281 71.6377 577.634 71.3643 579.108 71.3643C580.554 71.3643 581.896 71.6377 583.137 72.1846C584.377 72.7314 585.461 73.4932 586.389 74.4697C587.326 75.4463 588.054 76.5889 588.571 77.8975C589.089 79.2061 589.348 80.627 589.348 82.1602V82.4971C589.348 84.04 589.089 85.4707 588.571 86.7891C588.054 88.0977 587.331 89.2402 586.403 90.2168C585.476 91.1934 584.392 91.9551 583.151 92.502C581.911 93.0391 580.573 93.3076 579.138 93.3076ZM579.138 89.4111C580.749 89.4111 581.999 88.7812 582.888 87.5215C583.786 86.252 584.235 84.5771 584.235 82.4971V82.1309C584.235 80.0898 583.786 78.4395 582.888 77.1797C581.989 75.9102 580.729 75.2754 579.108 75.2754C577.399 75.2754 576.145 75.9004 575.344 77.1504C574.553 78.4004 574.157 80.0605 574.157 82.1309V82.4971C574.157 84.5869 574.562 86.2617 575.373 87.5215C576.184 88.7812 577.438 89.4111 579.138 89.4111ZM590.739 93V89.9971L592.937 89.5283V75.1582L590.739 74.6895V71.6719H598.166L606.721 85.3242H606.809V75.1582L604.011 74.6895V71.6719H613.576V74.6895L611.364 75.1582V93H606.296L597.58 79.6406H597.492V89.5283L600.305 89.9971V93H590.739ZM614.367 93V89.9971L616.579 89.5283V75.1582L614.367 74.6895V71.6719H624.416V74.6895L621.721 75.1582V89.0596H626.789L626.906 86.0859H630.832V93H614.367ZM631.857 93V89.9971L634.069 89.5283V75.1582L631.857 74.6895V71.6719H641.408V74.6895L639.196 75.1582V89.5283L641.408 89.9971V93H631.857ZM642.565 93V89.9971L644.763 89.5283V75.1582L642.565 74.6895V71.6719H649.992L658.547 85.3242H658.635V75.1582L655.837 74.6895V71.6719H665.402V74.6895L663.19 75.1582V93H658.122L649.406 79.6406H649.318V89.5283L652.131 89.9971V93H642.565ZM666.193 93V89.9971L668.405 89.5283V75.1582L666.193 74.6895V71.6719H683.229V77.8242H679.348L679.23 75.627H673.547V80.0068H680.358V83.9473H673.547V89.0303H679.509L679.626 86.7305H683.464V93H666.193ZM527.736 125V121.997L529.963 121.528V107.656H526.667L526.535 109.956H522.653V103.672H542.473V109.956H538.547L538.43 107.656H535.104V121.528L537.331 121.997V125H527.736ZM543.249 125V121.997L545.461 121.528V107.158L543.249 106.689V103.672H560.285V109.824H556.403L556.286 107.627H550.603V112.007H557.414V115.947H550.603V121.03H556.564L556.682 118.73H560.52V125H543.249ZM572.912 125.308C570.881 125.308 569.069 124.897 567.478 124.077C565.886 123.257 564.636 122.07 563.728 120.518C562.819 118.955 562.365 117.061 562.365 114.834V113.853C562.365 111.802 562.78 109.99 563.61 108.418C564.45 106.836 565.642 105.601 567.185 104.712C568.737 103.813 570.578 103.364 572.707 103.364C574.191 103.364 575.603 103.564 576.94 103.965C578.288 104.355 579.538 105.029 580.69 105.986V111.479H576.955L576.442 108.33C575.944 107.988 575.407 107.72 574.831 107.524C574.255 107.329 573.605 107.231 572.883 107.231C571.262 107.231 569.958 107.808 568.972 108.96C567.985 110.103 567.492 111.724 567.492 113.823V114.834C567.492 116.143 567.722 117.295 568.181 118.291C568.64 119.277 569.279 120.049 570.1 120.605C570.93 121.162 571.887 121.44 572.971 121.44C573.547 121.44 574.133 121.382 574.729 121.265C575.324 121.138 575.9 120.972 576.457 120.767L576.97 117.749H580.72V123.125C579.87 123.711 578.786 124.224 577.468 124.663C576.149 125.093 574.631 125.308 572.912 125.308ZM582.067 125V121.997L584.279 121.528V107.158L582.067 106.689V103.672H591.633V106.689L589.421 107.158V112.549H597.185V107.158L594.973 106.689V103.672H604.523V106.689L602.312 107.158V121.528L604.523 121.997V125H594.973V121.997L597.185 121.528V116.489H589.421V121.528L591.633 121.997V125H582.067ZM605.695 125V121.997L607.893 121.528V107.158L605.695 106.689V103.672H613.122L621.677 117.324H621.765V107.158L618.967 106.689V103.672H628.532V106.689L626.32 107.158V125H621.252L612.536 111.641H612.448V121.528L615.261 121.997V125H605.695ZM629.323 125V121.997L631.535 121.528V107.158L629.323 106.689V103.672H638.874V106.689L636.662 107.158V121.528L638.874 121.997V125H629.323ZM650.52 125.308C648.488 125.308 646.677 124.897 645.085 124.077C643.493 123.257 642.243 122.07 641.335 120.518C640.427 118.955 639.973 117.061 639.973 114.834V113.853C639.973 111.802 640.388 109.99 641.218 108.418C642.058 106.836 643.249 105.601 644.792 104.712C646.345 103.813 648.186 103.364 650.314 103.364C651.799 103.364 653.21 103.564 654.548 103.965C655.896 104.355 657.146 105.029 658.298 105.986V111.479H654.562L654.05 108.33C653.552 107.988 653.015 107.72 652.438 107.524C651.862 107.329 651.213 107.231 650.49 107.231C648.869 107.231 647.565 107.808 646.579 108.96C645.593 110.103 645.1 111.724 645.1 113.823V114.834C645.1 116.143 645.329 117.295 645.788 118.291C646.247 119.277 646.887 120.049 647.707 120.605C648.537 121.162 649.494 121.44 650.578 121.44C651.154 121.44 651.74 121.382 652.336 121.265C652.932 121.138 653.508 120.972 654.064 120.767L654.577 117.749H658.327V123.125C657.478 123.711 656.394 124.224 655.075 124.663C653.757 125.093 652.238 125.308 650.52 125.308ZM659.426 125V121.997L660.92 121.777L667.277 103.672H672.844L679.216 121.777L680.71 121.997V125H672.741V121.997L674.133 121.733L673.488 119.419H666.633L666.018 121.733L667.409 121.997V125H659.426ZM667.717 115.815H672.39L670.31 109.355L670.075 108.608H669.987L669.738 109.429L667.717 115.815ZM681.647 125V121.997L683.859 121.528V107.158L681.647 106.689V103.672H691.696V106.689L689.001 107.158V121.06H694.069L694.187 118.086H698.112V125H681.647ZM576.662 157V153.997L578.889 153.528V139.656H575.593L575.461 141.956H571.579V135.672H591.398V141.956H587.473L587.355 139.656H584.03V153.528L586.257 153.997V157H576.662ZM592.175 157V153.997L594.387 153.528V139.158L592.175 138.689V135.672H609.211V141.824H605.329L605.212 139.627H599.528V144.007H606.34V147.947H599.528V153.03H605.49L605.607 150.73H609.445V157H592.175ZM620.695 157.308C618.957 157.308 617.414 157.142 616.066 156.81C614.719 156.478 613.376 155.853 612.038 154.935V149.397H616.008L616.447 152.239C616.76 152.591 617.312 152.889 618.103 153.133C618.894 153.367 619.758 153.484 620.695 153.484C622.678 153.484 623.669 152.791 623.669 151.404C623.669 150.77 623.425 150.232 622.937 149.793C622.448 149.344 621.599 148.885 620.388 148.416C618.562 147.83 617.062 147.234 615.891 146.629C614.719 146.023 613.845 145.306 613.269 144.476C612.702 143.646 612.419 142.615 612.419 141.385C612.419 140.203 612.756 139.173 613.43 138.294C614.104 137.405 615.031 136.707 616.213 136.199C617.395 135.691 618.747 135.423 620.271 135.394C622.009 135.354 623.547 135.53 624.885 135.921C626.223 136.302 627.404 136.883 628.43 137.664V142.806H624.621L624.021 139.949C623.688 139.783 623.215 139.632 622.6 139.495C621.984 139.358 621.33 139.29 620.637 139.29C619.748 139.29 619.011 139.466 618.425 139.817C617.839 140.169 617.546 140.696 617.546 141.399C617.546 141.78 617.658 142.122 617.883 142.425C618.107 142.718 618.503 143.016 619.069 143.318C619.636 143.611 620.427 143.953 621.442 144.344C623.864 145.057 625.7 145.95 626.95 147.024C628.21 148.089 628.84 149.539 628.84 151.375C628.84 152.635 628.498 153.709 627.814 154.598C627.131 155.477 626.179 156.15 624.958 156.619C623.737 157.078 622.316 157.308 620.695 157.308ZM634.699 157V153.997L636.926 153.528V139.656H633.63L633.498 141.956H629.616V135.672H649.436V141.956H645.51L645.393 139.656H642.067V153.528L644.294 153.997V157H634.699Z" fill="black"/>
<path d="M167.188 373.308C165.792 373.308 164.503 373.068 163.321 372.59C162.149 372.102 161.217 371.389 160.523 370.451C159.83 369.514 159.498 368.366 159.527 367.009L159.542 366.921H164.552C164.552 367.604 164.786 368.19 165.255 368.679C165.733 369.157 166.378 369.396 167.188 369.396C168.028 369.396 168.692 369.152 169.181 368.664C169.679 368.176 169.928 367.541 169.928 366.76C169.928 365.959 169.659 365.305 169.122 364.797C168.585 364.279 167.804 364.021 166.778 364.021H164.596V360.227H166.925C167.784 360.227 168.443 359.997 168.902 359.538C169.361 359.079 169.591 358.474 169.591 357.722C169.591 357.019 169.381 356.438 168.961 355.979C168.551 355.52 167.96 355.29 167.188 355.29C166.524 355.29 165.973 355.485 165.533 355.876C165.104 356.257 164.889 356.75 164.889 357.355H159.894L159.864 357.268C159.825 356.096 160.113 355.065 160.729 354.177C161.354 353.288 162.223 352.6 163.336 352.111C164.449 351.613 165.714 351.364 167.13 351.364C169.415 351.364 171.251 351.892 172.638 352.946C174.034 353.991 174.732 355.471 174.732 357.385C174.732 358.449 174.449 359.362 173.883 360.124C173.326 360.876 172.491 361.521 171.378 362.058C172.501 362.478 173.395 363.112 174.059 363.962C174.732 364.812 175.069 365.827 175.069 367.009C175.069 368.308 174.728 369.431 174.044 370.378C173.36 371.315 172.423 372.038 171.231 372.546C170.05 373.054 168.702 373.308 167.188 373.308ZM176.944 373V368.752H182.057V373H176.944ZM190.992 373V369.997L193.204 369.528V355.158L190.992 354.689V351.672H200.543V354.689L198.331 355.158V369.528L200.543 369.997V373H190.992ZM201.7 373V369.997L203.897 369.528V355.158L201.7 354.689V351.672H209.127L217.682 365.324H217.77V355.158L214.972 354.689V351.672H224.537V354.689L222.325 355.158V373H217.257L208.541 359.641H208.453V369.528L211.266 369.997V373H201.7ZM230.03 373V369.997L232.257 369.528V355.656H228.961L228.829 357.956H224.947V351.672H244.767V357.956H240.841L240.724 355.656H237.398V369.528L239.625 369.997V373H230.03ZM245.543 373V369.997L247.755 369.528V355.158L245.543 354.689V351.672H262.579V357.824H258.697L258.58 355.627H252.896V360.007H259.708V363.947H252.896V369.03H258.858L258.976 366.73H262.813V373H245.543ZM264.732 373V369.997L266.944 369.528V355.158L264.732 354.689V351.657H275.221C276.91 351.657 278.375 351.926 279.615 352.463C280.855 353 281.812 353.767 282.486 354.763C283.16 355.749 283.497 356.921 283.497 358.278C283.497 359.44 283.199 360.529 282.604 361.545C282.018 362.561 281.217 363.396 280.201 364.05L282.428 369.499L284.449 370.012V373H278.238L275.587 365.31L272.086 365.266V369.528L274.298 369.997V373H264.732ZM272.086 361.325H275.279C276.275 361.325 277.042 361.096 277.579 360.637C278.116 360.168 278.385 359.494 278.385 358.615C278.385 357.707 278.111 356.979 277.564 356.433C277.018 355.876 276.236 355.598 275.221 355.598H272.086V361.325ZM292.491 373L285.812 354.924L283.79 354.689V351.672H293.355V354.689L291.451 354.982L295.274 366.965L295.479 367.8H295.567L295.758 367.009L299.464 354.982L297.179 354.689V351.672H306.114V354.689L304.034 354.924L298.058 373H292.491ZM306.891 373V369.997L309.103 369.528V355.158L306.891 354.689V351.672H316.441V354.689L314.229 355.158V369.528L316.441 369.997V373H306.891ZM317.613 373V369.997L319.825 369.528V355.158L317.613 354.689V351.672H334.649V357.824H330.768L330.65 355.627H324.967V360.007H331.778V363.947H324.967V369.03H330.929L331.046 366.73H334.884V373H317.613ZM343.717 373L338.795 354.909L336.378 354.689V351.672H346.002V354.689L343.629 355.026L345.958 364.562L346.295 365.939H346.383L346.734 364.548L350.909 351.672H354.454L358.849 365.148L359.156 366.071H359.244L359.493 365.148L361.983 355.026L359.537 354.689V351.672H368.971V354.689L366.7 354.909L361.559 373H356.974L353.297 361.97L352.843 360.446H352.755L352.184 362.058L348.448 373H343.717Z" fill="black"/>
<path d="M524.827 373.308C522.688 373.308 520.901 372.839 519.466 371.901C518.04 370.964 516.966 369.68 516.243 368.049C515.53 366.418 515.174 364.567 515.174 362.497V362.189C515.174 360.1 515.55 358.244 516.302 356.623C517.054 354.992 518.133 353.708 519.539 352.771C520.945 351.833 522.625 351.364 524.578 351.364C525.955 351.364 527.215 351.579 528.357 352.009C529.5 352.438 530.447 352.985 531.199 353.649V358.249H528.899L528.592 354.88C527.605 354.128 526.263 353.752 524.563 353.752C523.167 353.752 521.985 354.113 521.019 354.836C520.052 355.549 519.319 356.535 518.821 357.795C518.323 359.055 518.074 360.51 518.074 362.16V362.497C518.074 365.183 518.665 367.268 519.847 368.752C521.028 370.227 522.723 370.964 524.93 370.964C525.613 370.964 526.282 370.881 526.937 370.715C527.591 370.549 528.133 370.334 528.562 370.07L528.885 367.097H531.141V371.726C530.34 372.224 529.383 372.614 528.27 372.897C527.156 373.171 526.009 373.308 524.827 373.308ZM533.924 373V371.154L535.506 370.935L542.962 351.672H545.438L552.762 370.935L554.329 371.154V373H548.206V371.154L549.817 370.876L548.411 366.95H539.871L538.421 370.876L540.032 371.154V373H533.924ZM540.765 364.533H547.532L544.397 355.861L544.222 355.378H544.134L543.958 355.861L540.765 364.533ZM556.556 373V371.154L558.943 370.744V353.942L556.556 353.532V351.672H564.217V353.532L561.829 353.942V370.788H569.373L569.71 367.419H571.922V373H556.556ZM574.28 373V371.154L576.668 370.744V353.942L574.28 353.532V351.672H581.941V353.532L579.554 353.942V370.788H587.098L587.435 367.419H589.646V373H574.28ZM599.476 373V371.154L601.863 370.744V353.942L599.476 353.532V351.672H608.675C610.901 351.672 612.64 352.155 613.89 353.122C615.149 354.079 615.779 355.52 615.779 357.443C615.779 358.391 615.477 359.24 614.871 359.992C614.275 360.734 613.484 361.286 612.498 361.647C613.777 361.921 614.788 362.551 615.53 363.537C616.272 364.523 616.644 365.671 616.644 366.979C616.644 368.933 616.009 370.427 614.739 371.462C613.47 372.487 611.751 373 609.583 373H599.476ZM604.749 360.739H609.422C610.457 360.739 611.292 360.441 611.927 359.846C612.571 359.24 612.894 358.42 612.894 357.385C612.894 356.232 612.532 355.373 611.81 354.807C611.087 354.23 610.042 353.942 608.675 353.942H604.749V360.739ZM604.749 370.744H609.583C610.901 370.744 611.922 370.422 612.645 369.777C613.377 369.123 613.743 368.2 613.743 367.009C613.743 365.759 613.436 364.777 612.82 364.064C612.215 363.352 611.282 362.995 610.022 362.995H604.749V370.744ZM618.68 373V371.154L620.262 370.935L627.718 351.672H630.193L637.518 370.935L639.085 371.154V373H632.962V371.154L634.573 370.876L633.167 366.95H624.627L623.177 370.876L624.788 371.154V373H618.68ZM625.521 364.533H632.288L629.153 355.861L628.978 355.378H628.89L628.714 355.861L625.521 364.533ZM649.925 373.308C647.786 373.308 645.999 372.839 644.563 371.901C643.138 370.964 642.063 369.68 641.341 368.049C640.628 366.418 640.271 364.567 640.271 362.497V362.189C640.271 360.1 640.647 358.244 641.399 356.623C642.151 354.992 643.23 353.708 644.637 352.771C646.043 351.833 647.723 351.364 649.676 351.364C651.053 351.364 652.312 351.579 653.455 352.009C654.598 352.438 655.545 352.985 656.297 353.649V358.249H653.997L653.689 354.88C652.703 354.128 651.36 353.752 649.661 353.752C648.265 353.752 647.083 354.113 646.116 354.836C645.149 355.549 644.417 356.535 643.919 357.795C643.421 359.055 643.172 360.51 643.172 362.16V362.497C643.172 365.183 643.763 367.268 644.944 368.752C646.126 370.227 647.82 370.964 650.027 370.964C650.711 370.964 651.38 370.881 652.034 370.715C652.688 370.549 653.23 370.334 653.66 370.07L653.982 367.097H656.238V371.726C655.438 372.224 654.48 372.614 653.367 372.897C652.254 373.171 651.106 373.308 649.925 373.308ZM659.183 373V371.154L661.57 370.744V353.942L659.183 353.532V351.672H666.844V353.532L664.456 353.942V363.112L672.835 353.811L672.894 353.737L671.297 353.532V351.672H678.138V353.532L676.131 353.898L669.612 360.988L676.937 370.788L678.899 371.154V373H671.78V371.154L673.538 370.949L673.523 370.935L667.796 362.98L664.456 366.613V370.744L666.844 371.154V373H659.183Z" fill="black"/>
<rect y="79" width="53" height="50" fill="#FDDB26"/>
<path d="M835 324L893 361L835 398V324Z" fill="#FDDB26"/>
<path d="M287.984 58.5368C274.74 58.7466 249.788 59.142 233.741 63.6548C221.458 67.1089 207.074 70.4599 187.165 85.2326C170 97.9695 168.095 117.06 169.465 127.36C172.01 146.502 199.025 154.994 219.854 155.216C261.003 155.652 299.692 146.069 334.383 126.405C357.034 113.564 366.189 89.8467 363.834 70.2767C362.143 56.2213 353.908 40.0429 339.625 29.8494C327.723 21.3548 310.781 17.8162 294.939 18.4006C261.486 19.6349 250.793 20.9876 217.936 27.4358C202.093 30.5452 188.022 38.5411 167.05 54.726C155.936 68.3611 144.655 81.1626 142.891 93.7488C141.661 102.52 140.5 109 140.5 120.873C140.5 135.5 146.526 141.523 150.865 148.996C160.244 165.15 168.979 176.023 189.69 181.349C225.066 190.448 255.226 184.154 292.002 179.728C329.538 172.848 343.639 166.745 373.857 150.003C385.353 141.29 396.305 131.743 403.823 120.874C409.972 111.984 410.405 115.56 417.795 93.3004" stroke="black" stroke-width="5" stroke-linecap="round" stroke-linejoin="round"/>
</svg>
