<svg width="296" height="79" viewBox="0 0 296 79" fill="none" xmlns="http://www.w3.org/2000/svg">
<path d="M61.4688 30V27.5977L63.2383 27.2227V15.7266L61.4688 15.3516V12.9375H75.5195V17.9648H72.4141L72.332 16.1016H67.3516V20.0508H73.1523V23.1914H67.3516V27.2227L69.1211 27.5977V30H61.4688ZM76.6914 30V27.5977L78.168 27.2227V20.1094L76.4102 19.7344V17.3203H82.0469L82.1406 18.8672L82.1641 19.1836C82.7109 17.7852 83.582 17.0859 84.7773 17.0859C84.9492 17.0859 85.1523 17.1016 85.3867 17.1328C85.6211 17.1562 85.8594 17.2031 86.1016 17.2734L85.6914 21.0469L83.9336 20.9648C83.5273 20.9492 83.207 20.9961 82.9727 21.1055C82.7461 21.207 82.5156 21.3789 82.2812 21.6211V27.2227L83.7578 27.5977V30H76.6914ZM92.8867 30.2461C91.582 30.2461 90.4648 29.9766 89.5352 29.4375C88.6133 28.8906 87.9062 28.1328 87.4141 27.1641C86.9297 26.1875 86.6875 25.0586 86.6875 23.7773V23.543C86.6875 22.2773 86.9297 21.1602 87.4141 20.1914C87.9062 19.2227 88.6133 18.4648 89.5352 17.918C90.457 17.3633 91.5664 17.0859 92.8633 17.0859C94.168 17.0859 95.2773 17.3594 96.1914 17.9062C97.1133 18.4531 97.8164 19.2109 98.3008 20.1797C98.793 21.1484 99.0391 22.2695 99.0391 23.543V23.7773C99.0391 25.0508 98.793 26.1758 98.3008 27.1523C97.8164 28.1211 97.1133 28.8789 96.1914 29.4258C95.2773 29.9727 94.1758 30.2461 92.8867 30.2461ZM92.8867 27.1172C93.6367 27.1172 94.168 26.8203 94.4805 26.2266C94.793 25.625 94.9492 24.8086 94.9492 23.7773V23.543C94.9492 22.543 94.7891 21.7422 94.4688 21.1406C94.1562 20.5312 93.6211 20.2266 92.8633 20.2266C92.1055 20.2266 91.5703 20.5312 91.2578 21.1406C90.9531 21.7422 90.8008 22.543 90.8008 23.543V23.7773C90.8008 24.8164 90.9531 25.6328 91.2578 26.2266C91.5703 26.8203 92.1133 27.1172 92.8867 27.1172ZM100.188 30V27.5977L101.664 27.2227V20.1094L99.9062 19.7344V17.3203H105.555L105.695 19.0898C106.117 18.457 106.633 17.9648 107.242 17.6133C107.859 17.2617 108.559 17.0859 109.34 17.0859C110.527 17.0859 111.465 17.4883 112.152 18.293C112.84 19.0977 113.184 20.375 113.184 22.125V27.2227L114.66 27.5977V30H107.863V27.5977L109.059 27.2227V22.1133C109.059 21.4336 108.922 20.9531 108.648 20.6719C108.375 20.3828 107.984 20.2383 107.477 20.2383C106.758 20.2383 106.191 20.5117 105.777 21.0586V27.2227L106.832 27.5977V30H100.188ZM120.391 30.2695C119.062 30.2695 118.051 29.918 117.355 29.2148C116.668 28.5039 116.324 27.3828 116.324 25.8516V20.1562H114.742V17.3203H116.324V14.1914H120.414V17.3203H122.488V20.1562H120.414V25.8398C120.414 26.2539 120.508 26.543 120.695 26.707C120.883 26.8711 121.141 26.9531 121.469 26.9531C121.609 26.9531 121.75 26.9453 121.891 26.9297C122.031 26.9141 122.172 26.8945 122.312 26.8711L122.594 29.9414C121.852 30.1602 121.117 30.2695 120.391 30.2695ZM124.457 24.2227V21.0703H131.605V24.2227H124.457ZM133.234 30V27.5977L135.004 27.2227V15.7266L133.234 15.3516V12.9375H146.863V17.8594H143.758L143.664 16.1016H139.117V19.6055H144.566V22.7578H139.117V26.8242H143.887L143.98 24.9844H147.051V30H133.234ZM148.562 30V27.5977L150.039 27.2227V20.1094L148.281 19.7344V17.3203H153.93L154.07 19.0898C154.492 18.457 155.008 17.9648 155.617 17.6133C156.234 17.2617 156.934 17.0859 157.715 17.0859C158.902 17.0859 159.84 17.4883 160.527 18.293C161.215 19.0977 161.559 20.375 161.559 22.125V27.2227L163.035 27.5977V30H156.238V27.5977L157.434 27.2227V22.1133C157.434 21.4336 157.297 20.9531 157.023 20.6719C156.75 20.3828 156.359 20.2383 155.852 20.2383C155.133 20.2383 154.566 20.5117 154.152 21.0586V27.2227L155.207 27.5977V30H148.562ZM168.496 30.2461C167.504 30.2461 166.648 29.9844 165.93 29.4609C165.219 28.9375 164.672 28.2031 164.289 27.2578C163.914 26.3047 163.727 25.1953 163.727 23.9297V23.6836C163.727 22.3633 163.918 21.2109 164.301 20.2266C164.684 19.2344 165.227 18.4648 165.93 17.918C166.641 17.3633 167.48 17.0859 168.449 17.0859C169.121 17.0859 169.699 17.2266 170.184 17.5078C170.676 17.7812 171.105 18.168 171.473 18.668V14.5078L169.691 14.1328V11.7188H175.586V27.2227L177.062 27.5977V30H172.023L171.719 28.4297C171.336 29.0234 170.883 29.4766 170.359 29.7891C169.836 30.0938 169.215 30.2461 168.496 30.2461ZM169.773 27.0938C170.516 27.0938 171.082 26.8281 171.473 26.2969V21.2227C171.082 20.5664 170.523 20.2383 169.797 20.2383C169.086 20.2383 168.582 20.5547 168.285 21.1875C167.988 21.8203 167.84 22.6523 167.84 23.6836V23.9297C167.84 24.9375 167.98 25.7188 168.262 26.2734C168.543 26.8203 169.047 27.0938 169.773 27.0938ZM187.246 30V27.5977L189.027 27.2227V16.125H186.391L186.285 17.9648H183.18V12.9375H199.035V17.9648H195.895L195.801 16.125H193.141V27.2227L194.922 27.5977V30H187.246ZM205.398 30.2461C204.156 30.2461 203.07 29.9805 202.141 29.4492C201.219 28.9102 200.5 28.1758 199.984 27.2461C199.477 26.3164 199.223 25.2656 199.223 24.0938V23.6602C199.223 22.3711 199.449 21.2305 199.902 20.2383C200.355 19.2461 201.02 18.4727 201.895 17.918C202.77 17.3555 203.844 17.0781 205.117 17.0859C206.836 17.0859 208.156 17.582 209.078 18.5742C210 19.5586 210.461 20.9844 210.461 22.8516V24.9727H203.488L203.477 25.0547C203.562 25.6484 203.82 26.1406 204.25 26.5312C204.68 26.9219 205.297 27.1172 206.102 27.1172C207.117 27.1172 208.18 26.8633 209.289 26.3555L210.227 28.8398C209.656 29.2461 208.961 29.582 208.141 29.8477C207.32 30.1133 206.406 30.2461 205.398 30.2461ZM203.488 22.4297H206.711V22.125C206.711 21.4453 206.605 20.9336 206.395 20.5898C206.184 20.2383 205.789 20.0625 205.211 20.0625C204.586 20.0625 204.148 20.2812 203.898 20.7188C203.656 21.1484 203.504 21.6992 203.441 22.3711L203.488 22.4297ZM216.133 30.2461C214.906 30.2461 213.906 29.8984 213.133 29.2031C212.359 28.5078 211.973 27.582 211.973 26.4258C211.973 25.2383 212.449 24.2656 213.402 23.5078C214.363 22.75 215.812 22.3711 217.75 22.3711H219.074V21.6211C219.074 21.1133 218.93 20.6836 218.641 20.332C218.352 19.9727 217.895 19.793 217.27 19.793C216.746 19.793 216.289 19.9219 215.898 20.1797L215.617 21.7969H212.723L212.664 18.2695C213.383 17.9492 214.133 17.6719 214.914 17.4375C215.703 17.2031 216.582 17.0859 217.551 17.0859C219.277 17.0859 220.648 17.4844 221.664 18.2812C222.68 19.0703 223.188 20.1992 223.188 21.668V26.3438C223.188 26.5234 223.188 26.6992 223.188 26.8711C223.195 27.043 223.215 27.207 223.246 27.3633L224.617 27.5977V30H219.812C219.711 29.8594 219.602 29.6719 219.484 29.4375C219.367 29.2031 219.285 28.9688 219.238 28.7344C218.855 29.2109 218.426 29.582 217.949 29.8477C217.473 30.1133 216.867 30.2461 216.133 30.2461ZM217.398 27.3398C217.695 27.3398 217.992 27.2812 218.289 27.1641C218.594 27.0391 218.855 26.8555 219.074 26.6133V24.7852H217.797C217.242 24.7852 216.812 24.9062 216.508 25.1484C216.211 25.3906 216.062 25.7109 216.062 26.1094C216.062 26.4922 216.188 26.793 216.438 27.0117C216.688 27.2305 217.008 27.3398 217.398 27.3398ZM225.273 30V27.5977L226.773 27.2227V20.1094L224.992 19.7344V17.3203H230.629L230.758 19.0078C231.172 18.3984 231.676 17.9258 232.27 17.5898C232.863 17.2539 233.551 17.0859 234.332 17.0859C235.121 17.0859 235.797 17.2578 236.359 17.6016C236.93 17.9375 237.359 18.4531 237.648 19.1484C238.031 18.4922 238.523 17.9844 239.125 17.625C239.734 17.2656 240.449 17.0859 241.27 17.0859C242.496 17.0859 243.461 17.5 244.164 18.3281C244.867 19.1562 245.219 20.4297 245.219 22.1484V27.2227L246.719 27.5977V30H239.91V27.5977L241.117 27.2227V22.1484C241.117 21.4062 241 20.9023 240.766 20.6367C240.539 20.3711 240.207 20.2383 239.77 20.2383C239.059 20.2383 238.48 20.5039 238.035 21.0352V27.2227L239.09 27.5977V30H232.891V27.5977L233.945 27.2227V22.1484C233.945 21.4062 233.832 20.9023 233.605 20.6367C233.379 20.3711 233.039 20.2383 232.586 20.2383C231.883 20.2383 231.309 20.5078 230.863 21.0469V27.2227L232.07 27.5977V30H225.273ZM61.4688 72V69.5977L63.2383 69.2227V57.7266L61.4688 57.3516V54.9375H69.1914C71.3398 54.9375 73.0156 55.332 74.2188 56.1211C75.4219 56.9102 76.0234 58.0859 76.0234 59.6484C76.0234 60.4531 75.832 61.1758 75.4492 61.8164C75.0664 62.4492 74.4766 62.9297 73.6797 63.2578C74.7031 63.4766 75.4453 63.9258 75.9062 64.6055C76.3672 65.2773 76.5977 66.0547 76.5977 66.9375C76.5977 68.6094 76.0391 69.8711 74.9219 70.7227C73.8047 71.5742 72.1836 72 70.0586 72H61.4688ZM67.3516 62.0156H69.0156C70.9453 62.0156 71.9102 61.3828 71.9102 60.1172C71.9102 59.4062 71.6836 58.8906 71.2305 58.5703C70.7852 58.2422 70.1055 58.0781 69.1914 58.0781H67.3516V62.0156ZM67.3516 68.8711H70.0586C71.6914 68.8711 72.5078 68.2227 72.5078 66.9258C72.5078 66.1914 72.3281 65.6445 71.9688 65.2852C71.6172 64.918 71.0469 64.7344 70.2578 64.7344H67.3516V68.8711ZM81.9062 72.2461C80.6797 72.2461 79.6797 71.8984 78.9062 71.2031C78.1328 70.5078 77.7461 69.582 77.7461 68.4258C77.7461 67.2383 78.2227 66.2656 79.1758 65.5078C80.1367 64.75 81.5859 64.3711 83.5234 64.3711H84.8477V63.6211C84.8477 63.1133 84.7031 62.6836 84.4141 62.332C84.125 61.9727 83.668 61.793 83.043 61.793C82.5195 61.793 82.0625 61.9219 81.6719 62.1797L81.3906 63.7969H78.4961L78.4375 60.2695C79.1562 59.9492 79.9062 59.6719 80.6875 59.4375C81.4766 59.2031 82.3555 59.0859 83.3242 59.0859C85.0508 59.0859 86.4219 59.4844 87.4375 60.2812C88.4531 61.0703 88.9609 62.1992 88.9609 63.668V68.3438C88.9609 68.5234 88.9609 68.6992 88.9609 68.8711C88.9688 69.043 88.9883 69.207 89.0195 69.3633L90.3906 69.5977V72H85.5859C85.4844 71.8594 85.375 71.6719 85.2578 71.4375C85.1406 71.2031 85.0586 70.9688 85.0117 70.7344C84.6289 71.2109 84.1992 71.582 83.7227 71.8477C83.2461 72.1133 82.6406 72.2461 81.9062 72.2461ZM83.1719 69.3398C83.4688 69.3398 83.7656 69.2812 84.0625 69.1641C84.3672 69.0391 84.6289 68.8555 84.8477 68.6133V66.7852H83.5703C83.0156 66.7852 82.5859 66.9062 82.2812 67.1484C81.9844 67.3906 81.8359 67.7109 81.8359 68.1094C81.8359 68.4922 81.9609 68.793 82.2109 69.0117C82.4609 69.2305 82.7812 69.3398 83.1719 69.3398ZM97.3633 72.2461C96.1055 72.2461 95.0234 71.9688 94.1172 71.4141C93.2109 70.8594 92.5156 70.0977 92.0312 69.1289C91.5469 68.1602 91.3047 67.0547 91.3047 65.8125V65.543C91.3047 64.2695 91.5547 63.1484 92.0547 62.1797C92.5625 61.2109 93.2656 60.4531 94.1641 59.9062C95.0703 59.3594 96.125 59.0859 97.3281 59.0859C98.5391 59.0859 99.5742 59.2695 100.434 59.6367C101.301 60.0039 101.984 60.3867 102.484 60.7852L102.414 64.7812H99.3555L98.8633 62.4844C98.7305 62.3516 98.5508 62.2422 98.3242 62.1562C98.1055 62.0703 97.9219 62.0273 97.7734 62.0273C96.8984 62.0273 96.2852 62.3125 95.9336 62.8828C95.5898 63.4531 95.418 64.3398 95.418 65.543V65.8125C95.418 66.6484 95.5156 67.3086 95.7109 67.793C95.9141 68.2695 96.168 68.6094 96.4727 68.8125C96.7773 69.0156 97.0898 69.1172 97.4102 69.1172C97.9023 69.1172 98.2812 68.9961 98.5469 68.7539C98.8203 68.5039 99.0312 68.1406 99.1797 67.6641H102.625L102.672 67.7344C102.484 68.7422 102.191 69.582 101.793 70.2539C101.395 70.918 100.84 71.418 100.129 71.7539C99.4258 72.082 98.5039 72.2461 97.3633 72.2461ZM103.82 72V69.5977L105.32 69.2227V56.5078L103.539 56.1328V53.7188H109.41V64.4297L112.305 61.9219V61.9102L111.039 61.6992V59.3203H118.34V61.7344L116.699 62.2148L113.781 64.6289L117.156 69.1758L118.574 69.5977V72H111.848V69.7617L112.621 69.4922L112.598 69.4453L110.91 67.0195L109.41 68.2617V69.2227L110.617 69.5977V72H103.82ZM120.402 66.2227V63.0703H127.551V66.2227H120.402ZM129.18 72V69.5977L130.949 69.2227V57.7266L129.18 57.3516V54.9375H142.809V59.8594H139.703L139.609 58.1016H135.062V61.6055H140.512V64.7578H135.062V68.8242H139.832L139.926 66.9844H142.996V72H129.18ZM144.508 72V69.5977L145.984 69.2227V62.1094L144.227 61.7344V59.3203H149.875L150.016 61.0898C150.438 60.457 150.953 59.9648 151.562 59.6133C152.18 59.2617 152.879 59.0859 153.66 59.0859C154.848 59.0859 155.785 59.4883 156.473 60.293C157.16 61.0977 157.504 62.375 157.504 64.125V69.2227L158.98 69.5977V72H152.184V69.5977L153.379 69.2227V64.1133C153.379 63.4336 153.242 62.9531 152.969 62.6719C152.695 62.3828 152.305 62.2383 151.797 62.2383C151.078 62.2383 150.512 62.5117 150.098 63.0586V69.2227L151.152 69.5977V72H144.508ZM164.441 72.2461C163.449 72.2461 162.594 71.9844 161.875 71.4609C161.164 70.9375 160.617 70.2031 160.234 69.2578C159.859 68.3047 159.672 67.1953 159.672 65.9297V65.6836C159.672 64.3633 159.863 63.2109 160.246 62.2266C160.629 61.2344 161.172 60.4648 161.875 59.918C162.586 59.3633 163.426 59.0859 164.395 59.0859C165.066 59.0859 165.645 59.2266 166.129 59.5078C166.621 59.7812 167.051 60.168 167.418 60.668V56.5078L165.637 56.1328V53.7188H171.531V69.2227L173.008 69.5977V72H167.969L167.664 70.4297C167.281 71.0234 166.828 71.4766 166.305 71.7891C165.781 72.0938 165.16 72.2461 164.441 72.2461ZM165.719 69.0938C166.461 69.0938 167.027 68.8281 167.418 68.2969V63.2227C167.027 62.5664 166.469 62.2383 165.742 62.2383C165.031 62.2383 164.527 62.5547 164.23 63.1875C163.934 63.8203 163.785 64.6523 163.785 65.6836V65.9297C163.785 66.9375 163.926 67.7188 164.207 68.2734C164.488 68.8203 164.992 69.0938 165.719 69.0938ZM183.191 72V69.5977L184.973 69.2227V58.125H182.336L182.23 59.9648H179.125V54.9375H194.98V59.9648H191.84L191.746 58.125H189.086V69.2227L190.867 69.5977V72H183.191ZM201.344 72.2461C200.102 72.2461 199.016 71.9805 198.086 71.4492C197.164 70.9102 196.445 70.1758 195.93 69.2461C195.422 68.3164 195.168 67.2656 195.168 66.0938V65.6602C195.168 64.3711 195.395 63.2305 195.848 62.2383C196.301 61.2461 196.965 60.4727 197.84 59.918C198.715 59.3555 199.789 59.0781 201.062 59.0859C202.781 59.0859 204.102 59.582 205.023 60.5742C205.945 61.5586 206.406 62.9844 206.406 64.8516V66.9727H199.434L199.422 67.0547C199.508 67.6484 199.766 68.1406 200.195 68.5312C200.625 68.9219 201.242 69.1172 202.047 69.1172C203.062 69.1172 204.125 68.8633 205.234 68.3555L206.172 70.8398C205.602 71.2461 204.906 71.582 204.086 71.8477C203.266 72.1133 202.352 72.2461 201.344 72.2461ZM199.434 64.4297H202.656V64.125C202.656 63.4453 202.551 62.9336 202.34 62.5898C202.129 62.2383 201.734 62.0625 201.156 62.0625C200.531 62.0625 200.094 62.2812 199.844 62.7188C199.602 63.1484 199.449 63.6992 199.387 64.3711L199.434 64.4297ZM212.078 72.2461C210.852 72.2461 209.852 71.8984 209.078 71.2031C208.305 70.5078 207.918 69.582 207.918 68.4258C207.918 67.2383 208.395 66.2656 209.348 65.5078C210.309 64.75 211.758 64.3711 213.695 64.3711H215.02V63.6211C215.02 63.1133 214.875 62.6836 214.586 62.332C214.297 61.9727 213.84 61.793 213.215 61.793C212.691 61.793 212.234 61.9219 211.844 62.1797L211.562 63.7969H208.668L208.609 60.2695C209.328 59.9492 210.078 59.6719 210.859 59.4375C211.648 59.2031 212.527 59.0859 213.496 59.0859C215.223 59.0859 216.594 59.4844 217.609 60.2812C218.625 61.0703 219.133 62.1992 219.133 63.668V68.3438C219.133 68.5234 219.133 68.6992 219.133 68.8711C219.141 69.043 219.16 69.207 219.191 69.3633L220.562 69.5977V72H215.758C215.656 71.8594 215.547 71.6719 215.43 71.4375C215.312 71.2031 215.23 70.9688 215.184 70.7344C214.801 71.2109 214.371 71.582 213.895 71.8477C213.418 72.1133 212.812 72.2461 212.078 72.2461ZM213.344 69.3398C213.641 69.3398 213.938 69.2812 214.234 69.1641C214.539 69.0391 214.801 68.8555 215.02 68.6133V66.7852H213.742C213.188 66.7852 212.758 66.9062 212.453 67.1484C212.156 67.3906 212.008 67.7109 212.008 68.1094C212.008 68.4922 212.133 68.793 212.383 69.0117C212.633 69.2305 212.953 69.3398 213.344 69.3398ZM221.219 72V69.5977L222.719 69.2227V62.1094L220.938 61.7344V59.3203H226.574L226.703 61.0078C227.117 60.3984 227.621 59.9258 228.215 59.5898C228.809 59.2539 229.496 59.0859 230.277 59.0859C231.066 59.0859 231.742 59.2578 232.305 59.6016C232.875 59.9375 233.305 60.4531 233.594 61.1484C233.977 60.4922 234.469 59.9844 235.07 59.625C235.68 59.2656 236.395 59.0859 237.215 59.0859C238.441 59.0859 239.406 59.5 240.109 60.3281C240.812 61.1562 241.164 62.4297 241.164 64.1484V69.2227L242.664 69.5977V72H235.855V69.5977L237.062 69.2227V64.1484C237.062 63.4062 236.945 62.9023 236.711 62.6367C236.484 62.3711 236.152 62.2383 235.715 62.2383C235.004 62.2383 234.426 62.5039 233.98 63.0352V69.2227L235.035 69.5977V72H228.836V69.5977L229.891 69.2227V64.1484C229.891 63.4062 229.777 62.9023 229.551 62.6367C229.324 62.3711 228.984 62.2383 228.531 62.2383C227.828 62.2383 227.254 62.5078 226.809 63.0469V69.2227L228.016 69.5977V72H221.219Z" fill="black"/>
<rect x="1.5" y="6.5" width="29" height="29" fill="white" stroke="black" stroke-width="3"/>
<rect x="1.5" y="48.5" width="29" height="29" fill="white" stroke="black" stroke-width="3"/>
<path d="M9.50195 56.0504C11.4274 60.9845 13.1538 65.8629 14.7243 70.8886C15.9878 74.9317 18.4395 67.2428 19.9467 64.6715C24.3217 57.2084 29.2941 52.2215 37.8521 50.082" stroke="black" stroke-width="5" stroke-linecap="round" stroke-linejoin="round"/>
<path d="M9.50195 13.9684C11.4274 18.9025 13.1538 23.7809 14.7243 28.8067C15.9878 32.8497 18.4395 25.1608 19.9467 22.5895C24.3217 15.1264 29.2941 10.1395 37.8521 8" stroke="black" stroke-width="5" stroke-linecap="round" stroke-linejoin="round"/>
</svg>
