<svg width="551" height="583" viewBox="0 0 551 583" fill="none" xmlns="http://www.w3.org/2000/svg">
<path d="M20.1016 255V246.992L26.0391 245.742V208.75H17.25L16.8984 214.883H6.54688V198.125H59.3984V214.883H48.9297L48.6172 208.75H39.75V245.742L45.6875 246.992V255H20.1016ZM61.4688 255V246.992L67.3672 245.742V207.422L61.4688 206.172V198.125H106.898V214.531H96.5469L96.2344 208.672H81.0781V220.352H99.2422V230.859H81.0781V244.414H96.9766L97.2891 238.281H107.523V255H61.4688ZM111.977 255V246.992L115.961 246.406L132.914 198.125H147.758L164.75 246.406L168.734 246.992V255H147.484V246.992L151.195 246.289L149.477 240.117H131.195L129.555 246.289L133.266 246.992V255H111.977ZM134.086 230.508H146.547L141 213.281L140.375 211.289H140.141L139.477 213.477L134.086 230.508ZM197.055 255.82C191.638 255.82 186.807 254.727 182.562 252.539C178.318 250.352 174.984 247.188 172.562 243.047C170.141 238.88 168.93 233.828 168.93 227.891V225.273C168.93 219.805 170.036 214.974 172.25 210.781C174.49 206.562 177.667 203.268 181.781 200.898C185.922 198.503 190.831 197.305 196.508 197.305C200.466 197.305 204.229 197.839 207.797 198.906C211.391 199.948 214.724 201.745 217.797 204.297V218.945H207.836L206.469 210.547C205.141 209.635 203.708 208.919 202.172 208.398C200.635 207.878 198.904 207.617 196.977 207.617C192.654 207.617 189.177 209.154 186.547 212.227C183.917 215.273 182.602 219.596 182.602 225.195V227.891C182.602 231.38 183.214 234.453 184.438 237.109C185.661 239.74 187.367 241.797 189.555 243.281C191.768 244.766 194.32 245.508 197.211 245.508C198.747 245.508 200.31 245.352 201.898 245.039C203.487 244.701 205.023 244.258 206.508 243.711L207.875 235.664H217.875V250C215.609 251.562 212.719 252.93 209.203 254.102C205.688 255.247 201.638 255.82 197.055 255.82ZM221.469 255V246.992L227.367 245.742V207.422L221.469 206.172V198.125H246.977V206.172L241.078 207.422V221.797H261.781V207.422L255.883 206.172V198.125H281.352V206.172L275.453 207.422V245.742L281.352 246.992V255H255.883V246.992L261.781 245.742V232.305H241.078V245.742L246.977 246.992V255H221.469ZM284.516 255V246.992L290.414 245.742V207.422L284.516 206.172V198.125H309.984V206.172L304.086 207.422V245.742L309.984 246.992V255H284.516ZM313.07 255V246.992L318.93 245.742V207.422L313.07 206.172V198.125H332.875L355.688 234.531H355.922V207.422L348.461 206.172V198.125H373.969V206.172L368.07 207.422V255H354.555L331.312 219.375H331.078V245.742L338.578 246.992V255H313.07ZM403.031 255.82C397.146 255.82 392.159 254.674 388.07 252.383C384.008 250.091 380.909 246.914 378.773 242.852C376.638 238.763 375.57 234.036 375.57 228.672V226.094C375.57 220.443 376.625 215.456 378.734 211.133C380.844 206.81 383.904 203.424 387.914 200.977C391.924 198.529 396.768 197.305 402.445 197.305C406.326 197.305 410.219 197.904 414.125 199.102C418.031 200.273 421.469 202.135 424.438 204.688V218.008H414.672L412.602 210.781C411.716 209.87 410.453 209.115 408.812 208.516C407.198 207.917 405.375 207.617 403.344 207.617C398.63 207.617 395.089 209.323 392.719 212.734C390.349 216.12 389.164 220.547 389.164 226.016V228.672C389.164 233.828 390.388 237.93 392.836 240.977C395.31 244.023 398.891 245.547 403.578 245.547C405.219 245.547 406.846 245.378 408.461 245.039C410.076 244.701 411.339 244.323 412.25 243.906V236.562L405.844 235.781V226.328H426V249.922C422.927 251.901 419.451 253.385 415.57 254.375C411.716 255.339 407.536 255.82 403.031 255.82Z" fill="white"/>
<path d="M193.562 330V321.992L199.461 320.742V282.422L193.562 281.172V273.125H219.031V281.172L213.133 282.422V320.742L219.031 321.992V330H193.562ZM222.117 330V321.992L227.977 320.742V282.422L222.117 281.172V273.125H241.922L264.734 309.531H264.969V282.422L257.508 281.172V273.125H283.016V281.172L277.117 282.422V330H263.602L240.359 294.375H240.125V320.742L247.625 321.992V330H222.117ZM297.664 330V321.992L303.602 320.742V283.75H294.812L294.461 289.883H284.109V273.125H336.961V289.883H326.492L326.18 283.75H317.312V320.742L323.25 321.992V330H297.664ZM339.031 330V321.992L344.93 320.742V282.422L339.031 281.172V273.125H384.461V289.531H374.109L373.797 283.672H358.641V295.352H376.805V305.859H358.641V319.414H374.539L374.852 313.281H385.086V330H339.031ZM390.203 330V321.992L396.102 320.742V282.422L390.203 281.172V273.086H418.172C422.677 273.086 426.583 273.802 429.891 275.234C433.198 276.667 435.75 278.711 437.547 281.367C439.344 283.997 440.242 287.122 440.242 290.742C440.242 293.841 439.448 296.745 437.859 299.453C436.297 302.161 434.161 304.388 431.453 306.133L437.391 320.664L442.781 322.031V330H426.219L419.148 309.492L409.812 309.375V320.742L415.711 321.992V330H390.203ZM409.812 298.867H418.328C420.984 298.867 423.029 298.255 424.461 297.031C425.893 295.781 426.609 293.984 426.609 291.641C426.609 289.219 425.88 287.279 424.422 285.82C422.964 284.336 420.88 283.594 418.172 283.594H409.812V298.867ZM445.711 330V321.992L451.57 320.742V282.422L445.711 281.172V273.125H465.516L488.328 309.531H488.562V282.422L481.102 281.172V273.125H506.609V281.172L500.711 282.422V330H487.195L463.953 294.375H463.719V320.742L471.219 321.992V330H445.711Z" fill="white"/>
<path d="M14.1016 405V396.992L20.0391 395.742V358.75H11.25L10.8984 364.883H0.546875V348.125H53.3984V364.883H42.9297L42.6172 358.75H33.75V395.742L39.6875 396.992V405H14.1016ZM84.7266 405.82C79.8307 405.82 75.5599 405.039 71.9141 403.477C68.2943 401.888 65.4948 399.57 63.5156 396.523C61.5365 393.477 60.5469 389.753 60.5469 385.352V357.422L54.6875 356.172V348.125H80.1562V356.172L74.2578 357.422V385.352C74.2578 388.789 75.1562 391.341 76.9531 393.008C78.75 394.648 81.3151 395.469 84.6484 395.469C91.6276 395.469 95.1172 392.096 95.1172 385.352V357.422L89.2578 356.172V348.125H114.727V356.172L108.828 357.422V385.352C108.828 389.674 107.812 393.372 105.781 396.445C103.75 399.492 100.924 401.823 97.3047 403.438C93.7109 405.026 89.5182 405.82 84.7266 405.82ZM129.57 405V396.992L135.508 395.742V358.75H126.719L126.367 364.883H116.016V348.125H168.867V364.883H158.398L158.086 358.75H149.219V395.742L155.156 396.992V405H129.57ZM197.695 405.82C193.763 405.82 190.143 405.104 186.836 403.672C183.555 402.214 180.703 400.182 178.281 397.578C175.859 394.974 173.984 391.927 172.656 388.438C171.354 384.922 170.703 381.107 170.703 376.992V376.094C170.703 372.005 171.354 368.216 172.656 364.727C173.984 361.237 175.846 358.19 178.242 355.586C180.664 352.982 183.516 350.951 186.797 349.492C190.078 348.034 193.685 347.305 197.617 347.305C201.471 347.305 205.052 348.034 208.359 349.492C211.667 350.951 214.557 352.982 217.031 355.586C219.531 358.19 221.471 361.237 222.852 364.727C224.232 368.216 224.922 372.005 224.922 376.094V376.992C224.922 381.107 224.232 384.922 222.852 388.438C221.471 391.927 219.544 394.974 217.07 397.578C214.596 400.182 211.706 402.214 208.398 403.672C205.091 405.104 201.523 405.82 197.695 405.82ZM197.695 395.43C201.992 395.43 205.326 393.75 207.695 390.391C210.091 387.005 211.289 382.539 211.289 376.992V376.016C211.289 370.573 210.091 366.172 207.695 362.812C205.299 359.427 201.94 357.734 197.617 357.734C193.06 357.734 189.714 359.401 187.578 362.734C185.469 366.068 184.414 370.495 184.414 376.016V376.992C184.414 382.565 185.495 387.031 187.656 390.391C189.818 393.75 193.164 395.43 197.695 395.43ZM228.672 405V396.992L234.57 395.742V357.422L228.672 356.172V348.086H256.641C261.146 348.086 265.052 348.802 268.359 350.234C271.667 351.667 274.219 353.711 276.016 356.367C277.812 358.997 278.711 362.122 278.711 365.742C278.711 368.841 277.917 371.745 276.328 374.453C274.766 377.161 272.63 379.388 269.922 381.133L275.859 395.664L281.25 397.031V405H264.688L257.617 384.492L248.281 384.375V395.742L254.18 396.992V405H228.672ZM248.281 373.867H256.797C259.453 373.867 261.497 373.255 262.93 372.031C264.362 370.781 265.078 368.984 265.078 366.641C265.078 364.219 264.349 362.279 262.891 360.82C261.432 359.336 259.349 358.594 256.641 358.594H248.281V373.867ZM309.102 405.82C304.466 405.82 300.352 405.378 296.758 404.492C293.164 403.607 289.583 401.94 286.016 399.492V384.727H296.602L297.773 392.305C298.607 393.242 300.078 394.036 302.188 394.688C304.297 395.312 306.602 395.625 309.102 395.625C314.388 395.625 317.031 393.776 317.031 390.078C317.031 388.385 316.38 386.953 315.078 385.781C313.776 384.583 311.51 383.359 308.281 382.109C303.411 380.547 299.414 378.958 296.289 377.344C293.164 375.729 290.833 373.815 289.297 371.602C287.786 369.388 287.031 366.641 287.031 363.359C287.031 360.208 287.93 357.461 289.727 355.117C291.523 352.747 293.997 350.885 297.148 349.531C300.299 348.177 303.906 347.461 307.969 347.383C312.604 347.279 316.706 347.747 320.273 348.789C323.841 349.805 326.992 351.354 329.727 353.438V367.148H319.57L317.969 359.531C317.083 359.089 315.82 358.685 314.18 358.32C312.539 357.956 310.794 357.773 308.945 357.773C306.576 357.773 304.609 358.242 303.047 359.18C301.484 360.117 300.703 361.523 300.703 363.398C300.703 364.414 301.003 365.326 301.602 366.133C302.201 366.914 303.255 367.708 304.766 368.516C306.276 369.297 308.385 370.208 311.094 371.25C317.552 373.151 322.448 375.534 325.781 378.398C329.141 381.237 330.82 385.104 330.82 390C330.82 393.359 329.909 396.224 328.086 398.594C326.263 400.938 323.724 402.734 320.469 403.984C317.214 405.208 313.424 405.82 309.102 405.82ZM333.906 405V396.992L339.805 395.742V357.422L333.906 356.172V348.125H359.414V356.172L353.516 357.422V371.797H374.219V357.422L368.32 356.172V348.125H393.789V356.172L387.891 357.422V395.742L393.789 396.992V405H368.32V396.992L374.219 395.742V382.305H353.516V395.742L359.414 396.992V405H333.906ZM396.953 405V396.992L402.852 395.742V357.422L396.953 356.172V348.125H422.422V356.172L416.523 357.422V395.742L422.422 396.992V405H396.953ZM425.547 405V396.992L431.445 395.742V357.422L425.547 356.172V348.125H453.203C457.734 348.125 461.667 348.919 465 350.508C468.333 352.096 470.898 354.31 472.695 357.148C474.518 359.961 475.43 363.242 475.43 366.992C475.43 370.742 474.518 374.023 472.695 376.836C470.898 379.648 468.333 381.836 465 383.398C461.667 384.961 457.734 385.742 453.203 385.742H445.156V395.742L451.055 396.992V405H425.547ZM445.156 375.234H453.203C455.99 375.234 458.099 374.479 459.531 372.969C460.99 371.432 461.719 369.466 461.719 367.07C461.719 364.596 460.99 362.565 459.531 360.977C458.099 359.388 455.99 358.594 453.203 358.594H445.156V375.234Z" fill="white"/>
<path d="M284.562 255V246.992L290.461 245.742V207.422L284.562 206.172V198.125H310.031V206.172L304.133 207.422V245.742L310.031 246.992V255H284.562ZM313.117 255V246.992L318.977 245.742V207.422L313.117 206.172V198.125H332.922L355.734 234.531H355.969V207.422L348.508 206.172V198.125H374.016V206.172L368.117 207.422V255H354.602L331.359 219.375H331.125V245.742L338.625 246.992V255H313.117ZM297.102 330V321.992L303.039 320.742V283.75H294.25L293.898 289.883H283.547V273.125H336.398V289.883H325.93L325.617 283.75H316.75V320.742L322.688 321.992V330H297.102ZM338.469 330V321.992L344.367 320.742V282.422L338.469 281.172V273.125H383.898V289.531H373.547L373.234 283.672H358.078V295.352H376.242V305.859H358.078V319.414H373.977L374.289 313.281H384.523V330H338.469ZM389.641 330V321.992L395.539 320.742V282.422L389.641 281.172V273.086H417.609C422.115 273.086 426.021 273.802 429.328 275.234C432.635 276.667 435.188 278.711 436.984 281.367C438.781 283.997 439.68 287.122 439.68 290.742C439.68 293.841 438.885 296.745 437.297 299.453C435.734 302.161 433.599 304.388 430.891 306.133L436.828 320.664L442.219 322.031V330H425.656L418.586 309.492L409.25 309.375V320.742L415.148 321.992V330H389.641ZM409.25 298.867H417.766C420.422 298.867 422.466 298.255 423.898 297.031C425.331 295.781 426.047 293.984 426.047 291.641C426.047 289.219 425.318 287.279 423.859 285.82C422.401 284.336 420.318 283.594 417.609 283.594H409.25V298.867ZM445.148 330V321.992L451.008 320.742V282.422L445.148 281.172V273.125H464.953L487.766 309.531H488V282.422L480.539 281.172V273.125H506.047V281.172L500.148 282.422V330H486.633L463.391 294.375H463.156V320.742L470.656 321.992V330H445.148ZM309.445 405.82C304.81 405.82 300.695 405.378 297.102 404.492C293.508 403.607 289.927 401.94 286.359 399.492V384.727H296.945L298.117 392.305C298.951 393.242 300.422 394.036 302.531 394.688C304.641 395.312 306.945 395.625 309.445 395.625C314.732 395.625 317.375 393.776 317.375 390.078C317.375 388.385 316.724 386.953 315.422 385.781C314.12 384.583 311.854 383.359 308.625 382.109C303.755 380.547 299.758 378.958 296.633 377.344C293.508 375.729 291.177 373.815 289.641 371.602C288.13 369.388 287.375 366.641 287.375 363.359C287.375 360.208 288.273 357.461 290.07 355.117C291.867 352.747 294.341 350.885 297.492 349.531C300.643 348.177 304.25 347.461 308.312 347.383C312.948 347.279 317.049 347.747 320.617 348.789C324.185 349.805 327.336 351.354 330.07 353.438V367.148H319.914L318.312 359.531C317.427 359.089 316.164 358.685 314.523 358.32C312.883 357.956 311.138 357.773 309.289 357.773C306.919 357.773 304.953 358.242 303.391 359.18C301.828 360.117 301.047 361.523 301.047 363.398C301.047 364.414 301.346 365.326 301.945 366.133C302.544 366.914 303.599 367.708 305.109 368.516C306.62 369.297 308.729 370.208 311.438 371.25C317.896 373.151 322.792 375.534 326.125 378.398C329.484 381.237 331.164 385.104 331.164 390C331.164 393.359 330.253 396.224 328.43 398.594C326.607 400.938 324.068 402.734 320.812 403.984C317.557 405.208 313.768 405.82 309.445 405.82ZM334.25 405V396.992L340.148 395.742V357.422L334.25 356.172V348.125H359.758V356.172L353.859 357.422V371.797H374.562V357.422L368.664 356.172V348.125H394.133V356.172L388.234 357.422V395.742L394.133 396.992V405H368.664V396.992L374.562 395.742V382.305H353.859V395.742L359.758 396.992V405H334.25ZM397.297 405V396.992L403.195 395.742V357.422L397.297 356.172V348.125H422.766V356.172L416.867 357.422V395.742L422.766 396.992V405H397.297ZM425.891 405V396.992L431.789 395.742V357.422L425.891 356.172V348.125H453.547C458.078 348.125 462.01 348.919 465.344 350.508C468.677 352.096 471.242 354.31 473.039 357.148C474.862 359.961 475.773 363.242 475.773 366.992C475.773 370.742 474.862 374.023 473.039 376.836C471.242 379.648 468.677 381.836 465.344 383.398C462.01 384.961 458.078 385.742 453.547 385.742H445.5V395.742L451.398 396.992V405H425.891ZM445.5 375.234H453.547C456.333 375.234 458.443 374.479 459.875 372.969C461.333 371.432 462.062 369.466 462.062 367.07C462.062 364.596 461.333 362.565 459.875 360.977C458.443 359.388 456.333 358.594 453.547 358.594H445.5V375.234Z" fill="black"/>
<rect x="258.5" y="7.5" width="285" height="568" stroke="black" stroke-width="15"/>
</svg>
