<svg width="1419" height="165" viewBox="0 0 1419 165" fill="none" xmlns="http://www.w3.org/2000/svg">
<path d="M0.375 162V139.578L16.8906 136.078V28.7812L0.375 25.2812V2.75H71.6875V25.2812L55.1719 28.7812V136.078L71.6875 139.578V162H0.375ZM80.3281 162V139.578L96.7344 136.078V28.7812L80.3281 25.2812V2.75H135.781L199.656 104.688H200.312V28.7812L179.422 25.2812V2.75H250.844V25.2812L234.328 28.7812V162H196.484L131.406 62.25H130.75V136.078L151.75 139.578V162H80.3281ZM291.859 162V139.578L308.484 136.078V32.5H283.875L282.891 49.6719H253.906V2.75H401.891V49.6719H372.578L371.703 32.5H346.875V136.078L363.5 139.578V162H291.859ZM407.688 162V139.578L424.203 136.078V28.7812L407.688 25.2812V2.75H534.891V48.6875H505.906L505.031 32.2812H462.594V64.9844H513.453V94.4062H462.594V132.359H507.109L507.984 115.188H536.641V162H407.688ZM550.969 162V139.578L567.484 136.078V28.7812L550.969 25.2812V2.64062H629.281C641.896 2.64062 652.833 4.64583 662.094 8.65625C671.354 12.6667 678.5 18.3906 683.531 25.8281C688.562 33.1927 691.078 41.9427 691.078 52.0781C691.078 60.7552 688.854 68.8854 684.406 76.4688C680.031 84.0521 674.052 90.2865 666.469 95.1719L683.094 135.859L698.188 139.688V162H651.812L632.016 104.578L605.875 104.25V136.078L622.391 139.578V162H550.969ZM605.875 74.8281H629.719C637.156 74.8281 642.88 73.1146 646.891 69.6875C650.901 66.1875 652.906 61.1562 652.906 54.5938C652.906 47.8125 650.865 42.3802 646.781 38.2969C642.698 34.1406 636.865 32.0625 629.281 32.0625H605.875V74.8281ZM706.391 162V139.578L722.797 136.078V28.7812L706.391 25.2812V2.75H761.844L825.719 104.688H826.375V28.7812L805.484 25.2812V2.75H876.906V25.2812L860.391 28.7812V162H822.547L757.469 62.25H756.812V136.078L777.812 139.578V162H706.391ZM952.484 164.297C939.505 164.297 927.984 163.057 917.922 160.578C907.859 158.099 897.833 153.432 887.844 146.578V105.234H917.484L920.766 126.453C923.099 129.078 927.219 131.302 933.125 133.125C939.031 134.875 945.484 135.75 952.484 135.75C967.286 135.75 974.688 130.573 974.688 120.219C974.688 115.479 972.865 111.469 969.219 108.188C965.573 104.833 959.229 101.406 950.188 97.9062C936.552 93.5312 925.359 89.0833 916.609 84.5625C907.859 80.0417 901.333 74.6823 897.031 68.4844C892.802 62.2865 890.688 54.5938 890.688 45.4062C890.688 36.5833 893.203 28.8906 898.234 22.3281C903.266 15.6927 910.193 10.4792 919.016 6.6875C927.839 2.89583 937.938 0.890625 949.312 0.671875C962.292 0.380208 973.776 1.69271 983.766 4.60938C993.755 7.45312 1002.58 11.7917 1010.23 17.625V56.0156H981.797L977.312 34.6875C974.833 33.4479 971.297 32.3177 966.703 31.2969C962.109 30.276 957.224 29.7656 952.047 29.7656C945.411 29.7656 939.906 31.0781 935.531 33.7031C931.156 36.3281 928.969 40.2656 928.969 45.5156C928.969 48.3594 929.807 50.9115 931.484 53.1719C933.161 55.3594 936.115 57.5833 940.344 59.8438C944.573 62.0312 950.479 64.5833 958.062 67.5C976.146 72.8229 989.854 79.4948 999.188 87.5156C1008.59 95.4635 1013.3 106.292 1013.3 120C1013.3 129.406 1010.74 137.427 1005.64 144.062C1000.54 150.625 993.427 155.656 984.312 159.156C975.198 162.583 964.589 164.297 952.484 164.297ZM1021.94 162V139.578L1038.45 136.078V28.7812L1021.94 25.2812V2.75H1093.36V25.2812L1076.84 28.7812V69.0312H1134.81V28.7812L1118.3 25.2812V2.75H1189.61V25.2812L1173.09 28.7812V136.078L1189.61 139.578V162H1118.3V139.578L1134.81 136.078V98.4531H1076.84V136.078L1093.36 139.578V162H1021.94ZM1198.47 162V139.578L1214.98 136.078V28.7812L1198.47 25.2812V2.75H1269.78V25.2812L1253.27 28.7812V136.078L1269.78 139.578V162H1198.47ZM1278.53 162V139.578L1295.05 136.078V28.7812L1278.53 25.2812V2.75H1355.97C1368.66 2.75 1379.67 4.97396 1389 9.42188C1398.33 13.8698 1405.52 20.0677 1410.55 28.0156C1415.65 35.8906 1418.2 45.0781 1418.2 55.5781C1418.2 66.0781 1415.65 75.2656 1410.55 83.1406C1405.52 91.0156 1398.33 97.1406 1389 101.516C1379.67 105.891 1368.66 108.078 1355.97 108.078H1333.44V136.078L1349.95 139.578V162H1278.53ZM1333.44 78.6562H1355.97C1363.77 78.6562 1369.68 76.5417 1373.69 72.3125C1377.77 68.0104 1379.81 62.5052 1379.81 55.7969C1379.81 48.8698 1377.77 43.1823 1373.69 38.7344C1369.68 34.2865 1363.77 32.0625 1355.97 32.0625H1333.44V78.6562Z" fill="#808080"/>
</svg>
